PathFileType	4	(X/Y/Z)	Trial_1_0-99.trc
DataRate	CameraRate	NumFrames	NumMarkers	Units	OrigDataRate	OrigDataStartFrame	OrigNumFrames
60	60	6	22	m	60	61	99
Frame#	Time	Hip			RHip			RKnee			RAnkle			RBigToe			RSmallToe			RHeel			LHip			LKnee			LAnkle			LBigToe			LSmallToe			LHeel			Neck			Head			Nose			RShoulder			RElbow			RWrist			LShoulder			LElbow			LWrist		
		X1	Y1	Z1	X2	Y2	Z2	X3	Y3	Z3	X4	Y4	Z4	X5	Y5	Z5	X6	Y6	Z6	X7	Y7	Z7	X8	Y8	Z8	X9	Y9	Z9	X10	Y10	Z10	X11	Y11	Z11	X12	Y12	Z12	X13	Y13	Z13	X14	Y14	Z14	X15	Y15	Z15	X16	Y16	Z16	X17	Y17	Z17	X18	Y18	Z18	X19	Y19	Z19	X20	Y20	Z20	X21	Y21	Z21	X22	Y22	Z22
61	1.0166666666666666	-0.12915090995720593	0.9654713025388301	-0.9928862982856034	-0.23449325470398769	1.0052464849473555	-1.004573389095972	-0.39503896736974947	0.6822990093803915	-0.7936622682807246	-0.5114696602269574	0.3016867823492391	-0.806052947843623	-0.49109980957975546	0.2459524394082152	-0.6356182046134297	-0.5424674722853523	0.25148369232671	-0.6726437193885377	-0.5158375807381159	0.252675187568266	-0.8410282890917898	-0.05164383278565487	0.9011325756716805	-1.035329828338542	-0.07094586233595224	0.5045983010663201	-0.9781478572748256	-0.020809645360671758	0.15554762320494792	-1.149239124858952	-0.026501554334224027	0.08290367383809578	-0.9896253743862298	0.014251238955896441	0.07791872817228697	-1.0284723308931165	-0.01739546652383514	0.10334685237016907	-1.203966425697492	0.22028557729873982	1.336577788235114	-0.8924526608075961	0.3634839831850255	1.4938540778324116	-0.7828538112886638	0.2865766119539646	1.3357250290761855	-0.7448872489402887	0.04029473105596781	1.4339235974702533	-0.9211113483015385	-0.21435359139921295	1.486989683259332	-0.8938679429780025	-0.09247150229925939	1.5933850792790127	-0.6998024469476042	0.31424744768583524	1.1849569695532527	-0.9942168288429465	0.3773665198426164	0.9130389479549945	-1.029366864975053	0.41467446012240594	0.6679749031742613	-0.9438059578215118
62	1.0333333333333334	-0.1293585974573375	0.9682417240966474	-0.988641336203577	-0.23477772572792588	1.0068945822454396	-0.9975509443183455	-0.37262424436485325	0.6702050732087007	-0.7932725438494436	-0.46380208512953414	0.2851747704389262	-0.8050416554701109	-0.4388857752412479	0.22964703448761947	-0.6363329112284734	-0.49643614177807344	0.23924500057357967	-0.6650270838308469	-0.4651583761061558	0.23293095631369976	-0.8392367124337096	-0.04251068284451807	0.9161455464198045	-0.9804363053459614	-0.06539993927257193	0.505323270442983	-0.9796999945326033	-0.021428115522388984	0.15833775961143298	-1.1497237576165595	-0.022927120952330463	0.08333555217499122	-0.9816652853703838	0.01757915009194964	0.07767587218275711	-1.0295027946313413	-0.019703410030585896	0.10621265298553392	-1.2049287014344157	0.21304046725224196	1.3423985564651377	-0.8811729390683063	0.3678450517691989	1.4970767160369296	-0.6998882558954993	0.27203755873673835	1.334619375195877	-0.7260505257445627	0.032484322168195766	1.4362104547127348	-0.9154007685310108	-0.22361917443301277	1.481130181919685	-0.8801497868111455	-0.10505956825650976	1.586351543825502	-0.6837670190604069	0.3113214718703899	1.1910748323364033	-0.982781913995379	0.37671039002389495	0.9240854105984513	-1.025753735259897	0.41319047393663455	0.6737955830045673	-0.9359692174556701
63	1.05	-0.12804204607768854	0.9652242870373934	-0.9877382859733862	-0.23304301165014343	0.996993857634239	-0.9915429997474605	-0.3508951098815232	0.6565969942849369	-0.7884987443619181	-0.41296693065734436	0.26523067221926727	-0.7922490626295393	-0.3852804049586167	0.20773855151052847	-0.6302665793419127	-0.43959121174933014	0.21865000127045575	-0.65383347574183	-0.4129874623176906	0.21528987620503315	-0.8139715687083351	-0.042822828546640754	0.9156680426287788	-0.9795174143699287	-0.05857084457582416	0.5254417637789672	-0.9456268805103548	-0.017983336325988662	0.15363370385703856	-1.1557895803329579	-0.01946463448006418	0.08704179870127199	-0.9935868294683394	0.021625499043640167	0.07969531394812157	-1.0373953858001534	-0.016502753847671563	0.1008492574350222	-1.203216052132936	0.20804251713238686	1.3475456453268626	-0.8725349827878968	0.36049882014431556	1.5029159421650486	-0.6743126841594193	0.27449408501289807	1.3375874843202962	-0.7186508651838931	0.025635188135674728	1.4366164411480018	-0.9052348716740091	-0.23199702279541348	1.472812001518048	-0.8737526730428951	-0.11464464369962707	1.5772594736431436	-0.675280488636323	0.3071641489531917	1.19707460817549	-0.977797543605853	0.37850657685211136	0.929299948423198	-1.017919885475621	0.41457168527917687	0.6790829606270371	-0.9273831490399995
64	1.0666666666666667	-0.1219840589545194	0.9637352168374651	-0.9758449100580939	-0.22968729680069136	0.9929107333329555	-0.9818438071035538	-0.32702646421097437	0.6452168459747873	-0.789778418171676	-0.3776376657020078	0.25179172482016715	-0.7616630644454585	-0.34327091842971535	0.19981498796955785	-0.5904258688851624	-0.3963265638602863	0.20197918580784968	-0.6173376052586711	-0.38308634695467286	0.20390045957190933	-0.7842410947170796	-0.0352717074369505	0.912848517690015	-0.9674337030401666	-0.05663604676032981	0.5171259546486121	-0.9466242729748764	-0.02038802399706586	0.15054336377268615	-1.1547897400858642	-0.018706651960424626	0.08024854890634794	-0.9908271982262036	0.020283365382455107	0.0763782655105892	-1.0335144430035668	-0.01850167140196751	0.09908212854398703	-1.2028250281520703	0.19965461807279405	1.3528744811130595	-0.8689506075587531	0.34993157733267455	1.5075090362690156	-0.664928629331157	0.2724883958432805	1.3368143082278026	-0.7137296561993938	0.023207626220584192	1.4375271268302612	-0.9003536600097825	-0.24124310160890156	1.4674494054068459	-0.860934555248965	-0.12628001124676	1.5666317135300751	-0.6642559963468725	0.3007376871419468	1.2039163119969154	-0.9699676483672284	0.3748144414565527	0.9299096366765081	-1.0099324207191978	0.4152957382222866	0.6852804935111003	-0.9247542332216635
65	1.0833333333333333	-0.1188875677006403	0.9616676474725384	-0.9667882599234694	-0.23167544754117472	0.9886319766016474	-0.9728429124721776	-0.3062042347962409	0.628520531837243	-0.7988087688973465	-0.3418042350045743	0.2522090026463351	-0.7383034170318812	-0.2990867133543864	0.19206449864277572	-0.5721259731821317	-0.3502505446041935	0.19518840472374474	-0.596793361033728	-0.34385087443436624	0.2000844267417847	-0.7631640057448834	-0.034682817943417016	0.913610990605847	-0.9571807325010872	-0.05303087881500819	0.4971150254250397	-0.9762580904810341	-0.02252342264201978	0.15187312091731273	-1.1568856599008184	-0.023899354846717326	0.07636660464530008	-0.9889187535560022	0.02266100117647925	0.07231837076291904	-1.0329085701452076	-0.020599479806574242	0.10043678449916249	-1.2087304863265906	0.19404831881101764	1.3548039299746135	-0.8642784617335764	0.3435489359184714	1.5113505906379314	-0.6505997005609045	0.27091027004240587	1.3378518651679456	-0.7192080739995563	0.013613493317674094	1.4388425001037617	-0.894165882857321	-0.25153980592588293	1.4618820627307985	-0.8506514576648916	-0.13975812298145626	1.5561342433161727	-0.6570660824702652	0.2953901963323923	1.2134126075360347	-0.9612375962759954	0.3733934522075432	0.9454211976271796	-1.000725740129783	0.41635567337595003	0.696938404045232	-0.9181369349712518
66	1.1	-0.119264207272368	0.9574496409105775	-0.9641565607661047	-0.2308371221361321	0.9829809311563558	-0.9672831976482648	-0.28014460072341973	0.6142452949577113	-0.7936751763252052	-0.30459586492472507	0.23610207845253128	-0.7413461911408753	-0.2578813105360178	0.17448703800275944	-0.5711097195594649	-0.30819381876529206	0.17967053092760094	-0.5893122845535724	-0.3090452672760021	0.1882222614773935	-0.7658605782638097	-0.03621194350248894	0.913927039399171	-0.9538914142397404	-0.04419098890224287	0.49877363605370917	-0.9766588822039113	-0.022496470965239677	0.14681782139394176	-1.143612310929297	-0.001836297372004659	0.054798602497148144	-0.9788700734858786	0.02545926384686169	0.07046722009147682	-1.0366385636663127	-0.025896535537560002	0.09276674206545524	-1.19560706229611	0.18852058500303867	1.3559754822252759	-0.8471350113451911	0.3390315701183917	1.5124973579453187	-0.6393367873117166	0.2475194929885684	1.3391079391932839	-0.6900002602549408	0.006572410900775603	1.4403311122428053	-0.8746173375157938	-0.2613191241873108	1.4541661334763576	-0.8543044449657607	-0.15158763717521997	1.5509682942928067	-0.6414027658326419	0.29484597103146415	1.217903882319721	-0.9477316299179492	0.3713020297599129	0.9498523179347682	-0.9962846171859632	0.41576001817884156	0.7027822242841806	-0.9094453349966265
